<?xml version="1.0" standalone="no"?>
<!DOCTYPE svg PUBLIC "-//W3C//DTD SVG 20010904//EN"
 "http://www.w3.org/TR/2001/REC-SVG-20010904/DTD/svg10.dtd">
<svg version="1.0" xmlns="http://www.w3.org/2000/svg"
 width="212.000000pt" height="212.000000pt" viewBox="0 0 212.000000 212.000000"
 preserveAspectRatio="xMidYMid meet">
<metadata>
Created by potrace 1.10, written by Peter Selinger 2001-2011
</metadata>
<g transform="translate(0.000000,212.000000) scale(0.100000,-0.100000)"
fill="#000000" stroke="none">
<path d="M1060 1870 c-98 -17 -162 -50 -231 -119 -50 -50 -68 -77 -78 -113
-30 -108 30 -218 196 -360 102 -88 110 -93 128 -78 11 9 -2 25 -73 84 -233
194 -275 314 -151 438 89 89 225 130 365 109 85 -12 211 -58 267 -97 36 -24
67 -27 67 -4 0 30 -188 116 -299 136 -84 15 -124 16 -191 4z"/>
<path d="M1652 1794 c-18 -12 -1116 -1229 -1362 -1508 -56 -64 -33 -47 105 79
80 73 1208 1084 1279 1146 5 4 -2 21 -16 37 -22 26 -27 28 -43 16 -21 -16 -45
-2 -45 26 0 24 115 131 133 124 24 -9 29 -35 11 -56 -16 -17 -16 -20 7 -46 13
-15 25 -29 27 -31 7 -12 63 57 72 88 8 29 6 43 -10 77 -11 22 -32 46 -46 52
-35 17 -86 15 -112 -4z m112 -57 c33 -44 5 -48 -33 -5 -32 36 -32 38 -10 35
13 -2 32 -16 43 -30z m-183 -211 l30 -12 -74 -70 c-41 -38 -102 -94 -137 -124
-34 -30 -85 -76 -114 -102 -28 -25 -63 -57 -78 -70 -14 -13 -55 -48 -90 -79
-194 -173 -247 -219 -253 -219 -9 0 33 58 70 97 16 18 50 55 75 84 25 28 59
65 76 82 17 18 64 70 105 117 40 47 81 92 91 101 10 9 18 19 18 21 0 3 19 25
43 50 23 24 73 77 110 118 l68 75 15 -28 c9 -16 29 -34 45 -41z"/>
<path d="M1641 1636 c-12 -14 -8 -22 22 -56 62 -68 91 -135 92 -212 0 -52 -4
-73 -21 -95 -22 -30 -108 -82 -136 -83 -18 0 -26 -34 -10 -43 14 -9 127 50
159 83 41 43 56 88 51 155 -5 64 -52 161 -106 224 -34 38 -39 41 -51 27z"/>
<path d="M1224 1078 c-4 -6 15 -29 47 -56 146 -122 239 -245 239 -316 0 -95
-62 -177 -162 -214 -67 -25 -214 -46 -274 -39 -36 4 -43 1 -47 -15 -8 -28 12
-32 114 -25 191 14 306 61 366 149 34 51 49 125 38 180 -16 75 -92 172 -228
289 -70 61 -81 67 -93 47z"/>
</g>
</svg>
